# xmcd
# 
# Track frame offsets:
#     150
#     27980
#     67352
#     86515
#     103160
#     108020
#     137930
#     214622
# 
# Disc length: 3030
# 
# Revision: 2
# Processed by: cddbd v1.5.2PL0 Copyright (c) Steve Scherf et al.
# Submitted via: BonkEnc v1.0.6
# 
DISCID=710bd408
DTITLE=Tim Berne - ...theoretically
DYEAR=1986
DGENRE=Contemporary Jazz
TTITLE0=M.
TTITLE1=Inside the Brain
TTITLE2=Preview
TTITLE3=Carolina
TTITLE4=untitled
TTITLE5=Ground Floor
TTITLE6=2011
TTITLE7=Perky Figure
EXTD=\n\n\n
EXTT0=
EXTT1=
EXTT2=
EXTT3=
EXTT4=
EXTT5=
EXTT6=
EXTT7=
PLAYORDER=
